<mxfile host="app.diagrams.net" modified="2021-12-17T11:12:59.588Z" agent="5.0 (Windows NT 10.0; Win64; x64) AppleWebKit/537.36 (KHTML, like Gecko) Chrome/96.0.4664.45 Safari/537.36" etag="A28_0D8LAf-Y7npSvfnq" version="15.9.6" type="github">
  <diagram id="kxG_n4HesbqN45N5-l6h" name="Page-1">
    <mxGraphModel dx="2062" dy="1065" grid="1" gridSize="10" guides="1" tooltips="1" connect="1" arrows="1" fold="1" page="1" pageScale="1" pageWidth="850" pageHeight="1100" background="#FFDBDB" math="0" shadow="0">
      <root>
        <mxCell id="0" />
        <mxCell id="1" parent="0" />
        <mxCell id="dbGsSHTUpjVyOxmrDFo6-1" value="" style="rounded=1;whiteSpace=wrap;html=1;shadow=0;sketch=1;fillColor=#FFF2CC;" vertex="1" parent="1">
          <mxGeometry x="220" y="280" width="450" height="290" as="geometry" />
        </mxCell>
        <mxCell id="dbGsSHTUpjVyOxmrDFo6-2" value="&lt;h1&gt;&lt;font&gt;GO OR NO GO?&lt;/font&gt;&lt;/h1&gt;" style="rounded=1;whiteSpace=wrap;html=1;shadow=0;sketch=1;fontColor=#591A1A;strokeColor=#028090;fillColor=#FFF2CC;fontFamily=Georgia;" vertex="1" parent="1">
          <mxGeometry x="270" y="130" width="330" height="30" as="geometry" />
        </mxCell>
        <mxCell id="dbGsSHTUpjVyOxmrDFo6-3" value="" style="rounded=1;whiteSpace=wrap;html=1;shadow=0;sketch=1;fontFamily=Georgia;fontColor=#591A1A;strokeColor=#028090;fillColor=#FFF2CC;" vertex="1" parent="1">
          <mxGeometry x="250" y="330" width="200" height="30" as="geometry" />
        </mxCell>
        <mxCell id="dbGsSHTUpjVyOxmrDFo6-4" value="Name:" style="text;html=1;strokeColor=none;fillColor=none;align=center;verticalAlign=middle;whiteSpace=wrap;rounded=0;shadow=0;sketch=1;fontFamily=Georgia;fontColor=#591A1A;fontSize=14;" vertex="1" parent="1">
          <mxGeometry x="250" y="300" width="60" height="30" as="geometry" />
        </mxCell>
        <mxCell id="dbGsSHTUpjVyOxmrDFo6-5" value="Select Date:" style="text;html=1;strokeColor=none;fillColor=none;align=center;verticalAlign=middle;whiteSpace=wrap;rounded=0;shadow=0;sketch=1;fontFamily=Georgia;fontSize=14;fontColor=#591A1A;" vertex="1" parent="1">
          <mxGeometry x="470" y="300" width="100" height="30" as="geometry" />
        </mxCell>
        <mxCell id="dbGsSHTUpjVyOxmrDFo6-7" value="" style="rounded=1;whiteSpace=wrap;html=1;shadow=0;sketch=1;fontFamily=Georgia;fontSize=14;fontColor=#591A1A;strokeColor=#028090;fillColor=#FFF2CC;" vertex="1" parent="1">
          <mxGeometry x="480" y="330" width="120" height="60" as="geometry" />
        </mxCell>
        <mxCell id="dbGsSHTUpjVyOxmrDFo6-9" value="" style="rounded=1;whiteSpace=wrap;html=1;shadow=0;sketch=1;fontFamily=Georgia;fontSize=14;fontColor=#591A1A;strokeColor=#028090;fillColor=#FFF2CC;" vertex="1" parent="1">
          <mxGeometry x="250" y="440" width="200" height="40" as="geometry" />
        </mxCell>
        <mxCell id="dbGsSHTUpjVyOxmrDFo6-10" value="Proposed Activity:" style="text;html=1;strokeColor=none;fillColor=none;align=center;verticalAlign=middle;whiteSpace=wrap;rounded=0;shadow=0;sketch=1;fontFamily=Georgia;fontSize=14;fontColor=#591A1A;" vertex="1" parent="1">
          <mxGeometry x="240" y="400" width="150" height="30" as="geometry" />
        </mxCell>
        <mxCell id="dbGsSHTUpjVyOxmrDFo6-11" value="" style="rounded=1;whiteSpace=wrap;html=1;shadow=0;sketch=1;fontFamily=Georgia;fontSize=14;fontColor=#591A1A;strokeColor=#028090;fillColor=#FFF2CC;" vertex="1" parent="1">
          <mxGeometry x="480" y="445" width="130" height="30" as="geometry" />
        </mxCell>
        <mxCell id="dbGsSHTUpjVyOxmrDFo6-12" value="Preferred Timeslot" style="text;html=1;strokeColor=none;fillColor=none;align=center;verticalAlign=middle;whiteSpace=wrap;rounded=0;shadow=0;sketch=1;fontFamily=Georgia;fontSize=14;fontColor=#591A1A;" vertex="1" parent="1">
          <mxGeometry x="475" y="400" width="130" height="30" as="geometry" />
        </mxCell>
      </root>
    </mxGraphModel>
  </diagram>
</mxfile>
